<?xml version="1.0" encoding="iso-8859-1"?>
<!-- Generator: Adobe Illustrator 19.0.0, SVG Export Plug-In . SVG Version: 6.00 Build 0)  -->
<svg xmlns="http://www.w3.org/2000/svg" xmlns:xlink="http://www.w3.org/1999/xlink" version="1.1" id="Layer_1" x="0px" y="0px" viewBox="0 0 398.156 398.156" style="enable-background:new 0 0 398.156 398.156;" xml:space="preserve" width="512" height="512">
<g>
	<g>
		<path style="fill:#333E48;" d="M318.541,186.354c-4.143,0-7.5-3.358-7.5-7.5c0-4.142,3.357-7.5,7.5-7.5    c18.034,0,32.706-14.672,32.706-32.707c0-4.142,3.358-7.5,7.5-7.5c4.143,0,7.5,3.358,7.5,7.5    C366.247,164.953,344.847,186.354,318.541,186.354z"/>
		<path style="fill:#333E48;" d="M370.811,293.238c-4.143,0-7.5-3.358-7.5-7.5c0-18.034-14.672-32.706-32.707-32.706    c-4.143,0-7.5-3.358-7.5-7.5s3.357-7.5,7.5-7.5c26.306,0,47.707,21.401,47.707,47.706    C378.311,289.88,374.953,293.238,370.811,293.238z"/>
		<path style="fill:#333E48;" d="M337.645,380.993c-4.143,0-7.5-3.358-7.5-7.5c0-18.034-14.672-32.706-32.707-32.706    c-4.143,0-7.5-3.358-7.5-7.5c0-4.142,3.357-7.5,7.5-7.5c26.306,0,47.707,21.401,47.707,47.706    C345.145,377.635,341.787,380.993,337.645,380.993z"/>
		<path style="opacity:0.3;fill:#222222;" d="M318.541,186.354c12.137,0,23.223-4.563,31.65-12.053    c-2.201-4.763-4.619-9.405-7.244-13.912c-5.994,6.722-14.713,10.965-24.406,10.965c-4.143,0-7.5,3.358-7.5,7.5    C311.041,182.996,314.398,186.354,318.541,186.354z"/>
		<path style="opacity:0.3;fill:#222222;" d="M297.438,325.787c-4.143,0-7.5,3.358-7.5,7.5c0,4.142,3.357,7.5,7.5,7.5    c10.806,0,20.4,5.27,26.358,13.372c3.384-3.829,6.593-7.814,9.617-11.944C324.66,332.161,311.783,325.787,297.438,325.787z"/>
		<path style="opacity:0.3;fill:#222222;" d="M330.604,238.032c-4.143,0-7.5,3.358-7.5,7.5s3.357,7.5,7.5,7.5    c15.072,0,27.789,10.25,31.563,24.144c1.593-7.88,2.629-15.96,3.065-24.201C356.53,243.784,344.23,238.032,330.604,238.032z"/>
	</g>
	<path style="fill:#333E48;" d="M232.216,47.724c-0.464,0-0.935-0.043-1.406-0.133c-4.069-0.772-6.743-4.697-5.971-8.766   C229.74,12.979,254.76-4.057,280.597,0.84c4.069,0.771,6.743,4.696,5.972,8.766c-0.772,4.07-4.696,6.743-8.767,5.972   c-17.723-3.36-34.865,8.324-38.227,26.042C238.894,45.217,235.747,47.724,232.216,47.724z"/>
	<g>
		<path style="fill:#333E48;" d="M79.615,186.354c-26.306,0-47.706-21.401-47.706-47.707c0-4.142,3.357-7.5,7.5-7.5    c4.142,0,7.5,3.358,7.5,7.5c0,18.035,14.672,32.707,32.706,32.707c4.143,0,7.5,3.358,7.5,7.5    C87.115,182.996,83.758,186.354,79.615,186.354z"/>
		<path style="fill:#333E48;" d="M27.346,293.238c-4.143,0-7.5-3.358-7.5-7.5c0-26.305,21.401-47.706,47.707-47.706    c4.143,0,7.5,3.358,7.5,7.5s-3.357,7.5-7.5,7.5c-18.035,0-32.707,14.672-32.707,32.706    C34.846,289.88,31.488,293.238,27.346,293.238z"/>
		<path style="fill:#333E48;" d="M60.512,380.993c-4.143,0-7.5-3.358-7.5-7.5c0-26.305,21.401-47.706,47.707-47.706    c4.143,0,7.5,3.358,7.5,7.5c0,4.142-3.357,7.5-7.5,7.5c-18.035,0-32.707,14.672-32.707,32.706    C68.012,377.635,64.654,380.993,60.512,380.993z"/>
		<path style="opacity:0.3;fill:#222222;" d="M87.115,178.854c0-4.142-3.357-7.5-7.5-7.5c-9.693,0-18.411-4.243-24.405-10.964    c-2.626,4.506-5.043,9.148-7.245,13.912c8.429,7.49,19.514,12.053,31.65,12.053C83.758,186.354,87.115,182.996,87.115,178.854z"/>
		<path style="opacity:0.3;fill:#222222;" d="M75.053,245.532c0-4.142-3.357-7.5-7.5-7.5c-13.626,0-25.926,5.751-34.627,14.942    c0.437,8.24,1.473,16.321,3.065,24.2c3.774-13.893,16.49-24.142,31.561-24.142C71.695,253.032,75.053,249.674,75.053,245.532z"/>
		<path style="opacity:0.3;fill:#222222;" d="M100.719,325.787c-14.346,0-27.223,6.373-35.976,16.427    c3.025,4.13,6.233,8.115,9.617,11.944c5.959-8.101,15.553-13.371,26.358-13.371c4.143,0,7.5-3.358,7.5-7.5    C108.219,329.145,104.861,325.787,100.719,325.787z"/>
	</g>
	<path style="fill:#333E48;" d="M165.94,47.724c-3.532,0-6.678-2.506-7.359-6.104c-3.361-17.718-20.507-29.4-38.226-26.042   c-4.069,0.772-7.994-1.901-8.767-5.972c-0.771-4.069,1.902-7.994,5.972-8.766c25.842-4.901,50.857,12.139,55.758,37.984   c0.772,4.069-1.901,7.994-5.971,8.766C166.875,47.68,166.404,47.724,165.94,47.724z"/>
	<circle style="fill:#FF5959;" cx="199.079" cy="244.025" r="154.13"/>
	<g>
		<path style="fill:#333E48;" d="M199.078,365.125c-6.729,13.254-17.948,23.839-31.653,29.762c10.217,2.134,20.802,3.27,31.653,3.27    c10.847,0,21.421-1.145,31.633-3.279C217.016,388.953,205.804,378.373,199.078,365.125z"/>
		<path style="opacity:0.3;fill:#222222;" d="M199.078,365.125c-6.729,13.254-17.948,23.839-31.653,29.762    c4.084,0.853,8.229,1.539,12.424,2.064c8.052-5.909,14.673-13.653,19.229-22.628c4.555,8.972,11.173,16.714,19.222,22.622    c4.19-0.527,8.33-1.214,12.411-2.067C217.016,388.953,205.804,378.373,199.078,365.125z"/>
	</g>
	<path style="opacity:0.3;fill:#222222;" d="M199.078,89.895c-85.124,0-154.13,69.007-154.13,154.13   c0,85.124,69.006,154.131,154.13,154.131V89.895z"/>
	<g>
		<path style="fill:#333E48;" d="M311.209,138.286c-14.786,0.072-26.75,12.078-26.75,26.88c0,14.848,12.036,26.884,26.884,26.884    c11.611,0,21.503-7.362,25.263-17.672C329.884,161.131,321.305,148.987,311.209,138.286z"/>
		<circle style="fill:#333E48;" cx="257.575" cy="266.748" r="26.884"/>
		<path style="fill:#333E48;" d="M292.734,344.354c-14.847,0-26.884,12.036-26.884,26.884c0,3.785,0.786,7.386,2.198,10.652    c15.795-7.917,30.041-18.464,42.16-31.074C305.51,346.79,299.409,344.354,292.734,344.354z"/>
	</g>
	<g>
		<path style="fill:#333E48;" d="M86.947,138.286c14.786,0.072,26.75,12.078,26.75,26.88c0,14.848-12.036,26.884-26.884,26.884    c-11.611,0-21.503-7.362-25.263-17.672C68.272,161.131,76.853,148.987,86.947,138.286z"/>
		<circle style="fill:#333E48;" cx="140.581" cy="266.748" r="26.884"/>
		<path style="fill:#333E48;" d="M105.422,344.354c14.848,0,26.884,12.036,26.884,26.884c0,3.785-0.786,7.386-2.198,10.652    c-15.795-7.917-30.041-18.464-42.16-31.074C92.647,346.79,98.748,344.354,105.422,344.354z"/>
	</g>
	<g>
		<path style="fill:#333E48;" d="M199.078,5.158c-52.156,0-94.436,42.281-94.436,94.438c0,7.163,0.823,14.13,2.334,20.836    l0.005-0.005c29.737,19.248,66.712,26.921,92.098,26.921s62.36-7.673,92.098-26.921l0.004,0.007    c1.512-6.707,2.335-13.675,2.335-20.838C293.515,47.439,251.234,5.158,199.078,5.158z"/>
		<g>
			<path style="fill:#D1D3D3;" d="M275.675,44.387c-10.183,1.153-18.1,9.786-18.1,20.278c0,11.277,9.142,20.419,20.419,20.419     c5.167,0,9.872-1.935,13.469-5.099C288.701,66.913,283.23,54.851,275.675,44.387z"/>
			<path style="fill:#D1D3D3;" d="M122.481,44.387c10.183,1.153,18.1,9.786,18.1,20.278c0,11.277-9.143,20.419-20.419,20.419     c-5.167,0-9.872-1.935-13.469-5.099C109.455,66.913,114.926,54.851,122.481,44.387z"/>
		</g>
	</g>
	<path style="opacity:0.3;fill:#222222;" d="M104.642,99.595c0,7.163,0.823,14.13,2.334,20.836l0.005-0.005   c29.737,19.248,66.712,26.921,92.098,26.921V5.158C146.922,5.158,104.642,47.439,104.642,99.595z"/>
</g>















</svg>
